<svg width="20" height="20" viewBox="0 0 20 20" fill="none" xmlns="http://www.w3.org/2000/svg">
<circle cx="10" cy="10" r="10" fill="#1C71B5"/>
<g clip-path="url(#clip0_5334_56327)">
<path d="M10.0302 6.35156V11.5507M7.57852 9.35781L9.58768 11.367C9.70977 11.4891 9.86977 11.5503 10.0293 11.5503M12.4806 9.35781L10.4714 11.367C10.3493 11.4891 10.1893 11.5503 10.0298 11.5503M13.6452 11.8786V12.2682C13.6452 12.4488 13.6096 12.6276 13.5405 12.7944C13.4714 12.9612 13.3701 13.1128 13.2425 13.2405C13.1148 13.3682 12.9632 13.4695 12.7964 13.5386C12.6295 13.6077 12.4508 13.6432 12.2702 13.6432H7.72852C7.54795 13.6432 7.36915 13.6077 7.20233 13.5386C7.0355 13.4695 6.88392 13.3682 6.75624 13.2405C6.62856 13.1128 6.52728 12.9612 6.45818 12.7944C6.38908 12.6276 6.35352 12.4488 6.35352 12.2682V11.8786" stroke="white" stroke-width="0.9" stroke-linecap="round" stroke-linejoin="round"/>
</g>
<defs>
<clipPath id="clip0_5334_56327">
<rect width="10" height="10" fill="white" transform="translate(5 5)"/>
</clipPath>
</defs>
</svg>
